<svg t="1696505180968" class="icon" viewBox="0 0 1027 1024" version="1.1" xmlns="http://www.w3.org/2000/svg" p-id="3297" width="128" height="128"><path d="M717.977011 451.187739H290.329502c-19.616858 0-35.310345-15.693487-35.310345-39.233716 0-19.616858 15.693487-39.233716 35.310345-39.233716h427.647509c19.616858 0 35.310345 15.693487 35.310345 39.233716 0 19.616858-15.693487 39.233716-35.310345 39.233716z"  p-id="3298"></path><path d="M984.766284 608.122605c-11.770115 0-19.616858 3.923372-27.463602 11.770115l-333.48659 333.48659c-15.693487 15.693487-15.693487 39.233716 0 54.927203 7.846743 7.846743 19.616858 11.770115 27.463601 11.770115 11.770115 0 19.616858-3.923372 27.463602-11.770115l333.48659-333.48659c15.693487-15.693487 15.693487-39.233716 0-54.927203-7.846743-7.846743-15.693487-11.770115-27.463601-11.770115z"  p-id="3299"></path><path d="M651.279693 612.045977c-11.770115 0-19.616858 3.923372-27.463601 11.770115-15.693487 15.693487-15.693487 39.233716 0 54.927203l333.48659 333.48659c7.846743 7.846743 19.616858 11.770115 27.463602 11.770115s19.616858-3.923372 27.463601-11.770115c15.693487-15.693487 15.693487-39.233716 0-54.927203l-333.48659-333.48659c-7.846743-11.770115-19.616858-11.770115-27.463602-11.770115z"  p-id="3300"></path><path d="M517.885057 647.356322H290.329502c-15.693487 0-35.310345-15.693487-35.310345-39.233717 0-19.616858 15.693487-39.233716 35.310345-39.233716h227.555555c15.693487 0 35.310345 15.693487 35.310345 39.233716s-15.693487 39.233716-35.310345 39.233717zM753.287356 105.931034v-78.467432h-78.467433v78.467432c0 19.616858-19.616858 39.233716-39.233716 39.233717H372.720307c-19.616858 0-39.233716-19.616858-39.233717-39.233717v-78.467432h-78.467433v78.467432c0 66.697318 51.003831 117.701149 117.70115 117.70115h266.789272c62.773946 0 117.701149-51.003831 113.777777-117.70115z" p-id="3301"></path><path d="M78.467433 823.908046V196.168582c0-66.697318 51.003831-117.701149 117.701149-117.701149h627.739464c66.697318 0 117.701149 51.003831 117.701149 117.701149v105.931035c0 23.54023 15.693487 39.233716 39.233717 39.233716s39.233716-15.693487 39.233716-39.233716V156.934866c0-86.314176-70.62069-156.934866-156.934866-156.934866H156.934866C70.62069 0 0 70.62069 0 156.934866v706.206896c0 86.314176 70.62069 156.934866 156.934866 156.934866h145.164751c23.54023 0 39.233716-15.693487 39.233716-39.233716s-15.693487-39.233716-39.233716-39.233717H196.168582c-66.697318 0-117.701149-51.003831-117.701149-117.701149z"  p-id="3302"></path></svg>
