<svg t="1696495087161" class="icon" viewBox="0 0 1138 1024" version="1.1" xmlns="http://www.w3.org/2000/svg" p-id="50475" width="128" height="128"><path d="M797.595285 1023.961235a22.268992 22.268992 0 0 0 23.506158-23.506158v-356.303869a178.564323 178.564323 0 0 0-167.429827-183.100599h-176.50238a178.151935 178.151935 0 0 0-167.017439 183.100599v356.303869a22.268992 22.268992 0 0 0 23.506158 23.506158z"  p-id="50476"></path><path d="M209.116557 1023.961235a21.856603 21.856603 0 0 0 23.093769-23.506158v-371.149863a18.557493 18.557493 0 0 0-4.536276-18.969882 18.969882 18.969882 0 0 0-16.49555-7.010609H139.42286A140.62456 140.62456 0 0 0 0.035467 742.299728v257.330572a22.268992 22.268992 0 0 0 23.093769 23.506158h185.987321zM1107.711616 1023.961235a22.268992 22.268992 0 0 0 23.506158-23.506158V742.299728a140.212171 140.212171 0 0 0-139.387393-141.036949h-71.755641c-4.948665 0-14.021217 2.061944-16.495549 7.010609a47.424705 47.424705 0 0 0-4.536276 18.969882v371.149864a21.856603 21.856603 0 0 0 23.093769 23.506158zM970.798555 566.622125a164.955495 164.955495 0 1 0-162.481163-164.955495 162.893551 162.893551 0 0 0 162.481163 164.955495zM164.990962 566.622125a162.481163 162.481163 0 0 0 162.481162-164.955495 162.481163 162.481163 0 1 0-324.962325 0 162.481163 162.481163 0 0 0 162.481163 164.955495z"  p-id="50477"></path><path d="M565.420426 423.110845a209.493479 209.493479 0 0 0 209.08109-211.555423 209.08109 209.08109 0 1 0-418.16218 0 209.905867 209.905867 0 0 0 209.08109 211.555423z" p-id="50478"></path></svg>
