<?xml version="1.0" standalone="no"?><!DOCTYPE svg PUBLIC "-//W3C//DTD SVG 1.1//EN" "http://www.w3.org/Graphics/SVG/1.1/DTD/svg11.dtd"><svg t="1587973170706" class="icon" viewBox="0 0 1024 1024" version="1.1" xmlns="http://www.w3.org/2000/svg" p-id="2336" xmlns:xlink="http://www.w3.org/1999/xlink" width="200" height="200"><defs><style type="text/css">html, * { user-select: text !important; }
@font-face { font-family: rbicon; src: url("chrome-extension://dipiagiiohfljcicegpgffpbnjmgjcnf/fonts/rbicon.woff2") format("woff2"); font-weight: normal; font-style: normal; }
</style></defs><path d="M356.5 202l48.3-96.6c2.2-4.4 6.7-7.2 11.6-7.2h191.5c4.9 0 9.4 2.8 11.6 7.2l48.3 96.6h142.7c7.2 0 13 5.8 13 13v77.8c0 7.2-5.8 13-13 13H213.8c-7.2 0-13-5.8-13-13V215c0-7.2 5.8-13 13-13h142.7z m-90.8 155.6h492.9c7.2 0 13 5.8 13 13v505.8c0 28.7-23.2 51.9-51.9 51.9h-415c-28.7 0-51.9-23.2-51.9-51.9V370.6c-0.1-7.2 5.7-13 12.9-13z m142.6 181.6v207.5c0 14.3 11.6 25.9 25.9 25.9 14.3 0 25.9-11.6 25.9-25.9V539.2c0-14.3-11.6-25.9-25.9-25.9-14.2 0-25.9 11.6-25.9 25.9z m155.7 0v207.5c0 14.3 11.6 25.9 25.9 25.9 14.3 0 25.9-11.6 25.9-25.9V539.2c0-14.3-11.6-25.9-25.9-25.9-14.3 0-25.9 11.6-25.9 25.9z" p-id="2337"></path></svg>