<?xml version="1.0" standalone="no"?><!DOCTYPE svg PUBLIC "-//W3C//DTD SVG 1.1//EN" "http://www.w3.org/Graphics/SVG/1.1/DTD/svg11.dtd"><svg t="1556889475603" class="icon" style="" viewBox="0 0 1024 1024" version="1.1" xmlns="http://www.w3.org/2000/svg" p-id="3065" xmlns:xlink="http://www.w3.org/1999/xlink" width="200" height="200"><defs><style type="text/css"></style></defs><path d="M878.54 226.544h-40.717v651.469c0 44.976-36.458 81.434-81.434 81.434H267.787c-44.976 0-81.434-36.458-81.434-81.434V226.544h-40.717c-22.488 0-40.717-18.229-40.717-40.717s18.229-40.717 40.717-40.717h244.301c0-44.976 36.458-81.434 81.434-81.434h81.434c44.976 0 81.434 36.458 81.434 81.434H878.54c22.488 0 40.717 18.229 40.717 40.717s-18.229 40.717-40.717 40.717z m-122.151 0H267.787v651.469h488.602V226.544z m-325.734 81.434c22.488 0 40.717 18.229 40.717 40.717v407.168c0 22.488-18.229 40.717-40.717 40.717s-40.717-18.229-40.717-40.717V348.695c0-22.488 18.229-40.717 40.717-40.717z m162.867 0c22.488 0 40.717 18.229 40.717 40.717v407.168c0 22.488-18.229 40.717-40.717 40.717s-40.717-18.229-40.717-40.717V348.695c0-22.488 18.229-40.717 40.717-40.717z" p-id="3066"></path></svg>