<?xml version="1.0" standalone="no"?><!DOCTYPE svg PUBLIC "-//W3C//DTD SVG 1.1//EN" "http://www.w3.org/Graphics/SVG/1.1/DTD/svg11.dtd"><svg t="1587460890628" class="icon" viewBox="0 0 1024 1024" version="1.1" xmlns="http://www.w3.org/2000/svg" p-id="6364" xmlns:xlink="http://www.w3.org/1999/xlink" width="200" height="200"><defs><style type="text/css">html, * { user-select: text !important; }
@font-face { font-family: rbicon; src: url("chrome-extension://dipiagiiohfljcicegpgffpbnjmgjcnf/fonts/rbicon.woff2") format("woff2"); font-weight: normal; font-style: normal; }
</style></defs><path d="M85.333333 682.666667v-51.498667c0-10.410667 1.493333-20.736 4.48-30.634667L205.098667 216.32A64 64 0 0 1 266.410667 170.666667h448.512a64 64 0 0 1 61.312 45.653333l115.285333 384.213333c2.986667 9.898667 4.48 20.224 4.48 30.634667V789.333333a64 64 0 0 1-64 64h-682.666667A64 64 0 0 1 85.333333 789.333333V682.666667z m64-85.333334h682.666667c4.992 0 9.813333 0.554667 14.506667 1.664l-111.146667-370.432A21.333333 21.333333 0 0 0 714.922667 213.333333H266.410667a21.333333 21.333333 0 0 0-20.48 15.232L134.826667 598.997333c4.693333-1.109333 9.514667-1.664 14.506666-1.664zM128 704v85.333333a21.333333 21.333333 0 0 0 21.333333 21.333334h682.666667a21.333333 21.333333 0 0 0 21.333333-21.333334v-128a21.333333 21.333333 0 0 0-21.333333-21.333333h-682.666667a21.333333 21.333333 0 0 0-21.333333 21.333333v42.666667zM234.666667 768a21.333333 21.333333 0 1 1 0-42.666667h512a21.333333 21.333333 0 1 1 0 42.666667h-512z" fill="#000000" p-id="6365"></path></svg>