<?xml version="1.0" standalone="no"?><!DOCTYPE svg PUBLIC "-//W3C//DTD SVG 1.1//EN" "http://www.w3.org/Graphics/SVG/1.1/DTD/svg11.dtd"><svg t="1556889481008" class="icon" style="" viewBox="0 0 1024 1024" version="1.1" xmlns="http://www.w3.org/2000/svg" p-id="3325" xmlns:xlink="http://www.w3.org/1999/xlink" width="200" height="200"><defs><style type="text/css"></style></defs><path d="M435.407315 382.828505l0-66.617613 133.634954 0 0 66.617613L435.407315 382.828505 435.407315 382.828505zM435.407315 282.884465l0-66.617613 300.729242 0 0 66.617613L435.407315 282.884465 435.407315 282.884465zM824.274026 463.348995c-6.619171-4.023457-29.069376-11.207482-35.820447-14.467731-6.784298-3.259242-13.768962-6.752078-15.598447-7.715653-1.828478-0.965589-3.358922-16.73017-3.358922-35.055225L769.49621 116.356039c0-18.291827-15.000366-33.292193-33.391873-33.292193L101.319426 83.063846c-18.359288 0-33.426107 14.967139-33.426107 33.292193l0 732.766559c0 18.292834 14.999359 33.2932 33.426107 33.2932l310.041793 0c18.391508 0 34.223549 0.132907 35.221358 0.265814 1.031036 0.132907 7.150799 6.51949 13.702509 14.167683 6.51949 7.683433 28.702875 30.032951 37.549244 37.915745 8.81415 7.84856 5.0555 14.26837-13.337015 14.26837L34.468219 949.033412c-18.326061 0-33.391873-14.966132-33.391873-33.292193L1.076345 49.771653c0-18.326061 15.066819-33.32542 33.391873-33.32542L802.921311 16.446233c18.359288 0 33.391873 14.966132 33.391873 33.32542l0 394.55352C836.313184 462.651233 830.926424 467.308012 824.274026 463.348995L824.274026 463.348995zM101.319426 416.154932 101.319426 116.356039l300.696015 0 0 299.798893L101.319426 416.154932 101.319426 416.154932zM335.163227 182.974659 168.103173 182.974659l0 166.528426 167.061061 0L335.164234 182.974659 335.163227 182.974659zM101.319426 773.125981l0-299.765666 300.696015 0 0 299.765666L101.319426 773.125981 101.319426 773.125981zM335.163227 539.978934 168.103173 539.978934l0 166.4952 167.061061 0L335.164234 539.978934 335.163227 539.978934zM435.407315 182.974659 435.407315 116.356039l300.729242 0 0 66.61862L435.407315 182.974659 435.407315 182.974659zM1007.963564 979.898039l-44.201642 44.101961L855.138653 915.707992c-44.468463 34.623277-99.245271 53.513186-155.520305 53.513186-139.688263 0-253.335819-113.280048-253.335819-252.603824 0-139.289542 113.647556-252.603824 253.335819-252.603824 139.754717 0 253.467719 113.314281 253.467719 252.603824 0 56.075673-18.990596 110.654128-53.679319 154.988677L1007.963564 979.898039 1007.963564 979.898039zM700.450024 519.957302c-107.860061 0-195.297755 87.704515-195.297755 195.896843 0 108.158094 87.437694 195.862609 195.297755 195.862609 107.893287 0 195.330981-87.704515 195.330981-195.862609C895.781006 607.66081 808.342305 519.957302 700.450024 519.957302L700.450024 519.957302z" p-id="3326"></path></svg>