<?xml version="1.0" standalone="no"?><!DOCTYPE svg PUBLIC "-//W3C//DTD SVG 1.1//EN" "http://www.w3.org/Graphics/SVG/1.1/DTD/svg11.dtd"><svg t="1587818892470" class="icon" viewBox="0 0 1024 1024" version="1.1" xmlns="http://www.w3.org/2000/svg" p-id="2492" width="200" height="200" xmlns:xlink="http://www.w3.org/1999/xlink"><defs><style type="text/css">html, * { user-select: text !important; }
@font-face { font-family: rbicon; src: url("chrome-extension://dipiagiiohfljcicegpgffpbnjmgjcnf/fonts/rbicon.woff2") format("woff2"); font-weight: normal; font-style: normal; }
</style></defs><path d="M771.238 349.034c-48.762-111.806-160.142-190.034-289.912-190.034-174.674 0-316.28 141.604-316.28 316.278 0 0.954 0.134 1.872 0.142 2.824-89.786 15.028-158.282 92.89-158.282 186.944 0 104.806 84.964 189.768 189.77 189.768l600.928 0 0-2.186c124.78-15.594 221.398-121.828 221.398-250.838C1019 463.828 908.524 351.862 771.238 349.034zM512.954 759.93l-158.14-158.14 94.884 0L449.698 380.396l126.512 0 0 221.396 94.882 0L512.954 759.93z" p-id="2493"></path></svg>