<?xml version="1.0" standalone="no"?><!DOCTYPE svg PUBLIC "-//W3C//DTD SVG 1.1//EN" "http://www.w3.org/Graphics/SVG/1.1/DTD/svg11.dtd"><svg t="1556889435444" class="icon" style="" viewBox="0 0 1024 1024" version="1.1" xmlns="http://www.w3.org/2000/svg" p-id="1354" xmlns:xlink="http://www.w3.org/1999/xlink" width="200" height="200"><defs><style type="text/css"></style></defs><path d="M448 508.928v68.544A416.256 416.256 0 0 0 64 960H0a480 480 0 0 1 332.48-425.024c-84.672-50.176-142.08-141.44-142.08-246.976a288 288 0 0 1 576 0c0 33.856-6.464 65.92-17.28 96h-69.184c13.952-29.184 22.464-61.504 22.464-96 0-123.52-100.48-224-224.064-224S254.4 164.48 254.4 288c0 113.152 84.544 205.952 193.6 220.928zM1024 448H512v576h512V448zM576 512h384v448H576V512z m320 64h-256v64h256V576z m0 128h-256v64h256v-64z m-128 128h-128v64h128v-64z" fill="" p-id="1355"></path></svg>