<?xml version="1.0" standalone="no"?><!DOCTYPE svg PUBLIC "-//W3C//DTD SVG 1.1//EN" "http://www.w3.org/Graphics/SVG/1.1/DTD/svg11.dtd"><svg t="1602681134420" class="icon" viewBox="0 0 1024 1024" version="1.1" xmlns="http://www.w3.org/2000/svg" p-id="5476" xmlns:xlink="http://www.w3.org/1999/xlink" width="200" height="200"><defs><style type="text/css"></style></defs><path d="M704.232727 74.317576h106.154667c36.801939 0 81.609697 36.026182 81.609697 65.411879v750.312727c0 33.419636-25.227636 59.640242-58.088727 59.640242H292.739879c-12.412121 0-34.443636-0.03103-34.443637-59.609212v-565.682424c0-20.759273-16.570182-37.546667-36.057212-37.546667-19.48703 0-36.057212 16.787394-36.057212 37.546667v565.682424C186.181818 974.351515 226.27297 1024 292.739879 1024h541.168485C906.333091 1024 961.939394 965.538909 961.939394 890.073212V139.729455C961.939394 61.905455 879.522909 0 810.387394 0h-106.123636c-19.518061 0-35.312485 16.446061-35.312485 37.174303 0 20.697212 15.825455 37.143273 35.281454 37.143273z" p-id="5477" fill="#ffffff"></path><path d="M737.652364 410.282667a24.60703 24.60703 0 0 0-34.133334 0L574.060606 536.141576l-129.458424-125.858909a24.60703 24.60703 0 0 0-34.133334 0 22.993455 22.993455 0 0 0 0 33.202424l109.226667 106.185697h-90.453333a23.614061 23.614061 0 0 0-24.141576 23.272727c0 12.939636 10.798545 23.210667 24.141576 23.210667h121.576727v69.756121h-121.576727a23.614061 23.614061 0 0 0-24.141576 23.272727c0 12.939636 10.798545 23.241697 24.141576 23.241697h121.576727v70.904243c0 12.939636 10.550303 23.458909 23.893333 23.458909a23.58303 23.58303 0 0 0 23.924364-23.458909v-70.904243h120.242424c13.34303 0 24.141576-10.302061 24.141576-23.272727a23.614061 23.614061 0 0 0-24.141576-23.241697h-120.242424v-69.756121h120.242424c13.34303 0 24.141576-10.27103 24.141576-23.241697a23.614061 23.614061 0 0 0-24.141576-23.272727h-90.453333l109.226667-106.185697a22.993455 22.993455 0 0 0 0-33.202425zM97.869576 239.864242h461.110303l-61.036606 66.218667c-13.963636 15.142788-13.963636 39.718788 0 54.923636 13.963636 15.142788 36.615758 15.142788 50.641454 0l116.67394-126.510545c10.426182-6.702545 17.408-18.928485 17.408-33.078303 0-13.34303-6.206061-25.010424-15.732364-31.868121l-117.232485-127.131152A34.319515 34.319515 0 0 0 524.381091 31.030303c-9.153939 0-18.307879 3.785697-25.320727 11.388121a41.177212 41.177212 0 0 0 0 54.892606l60.571151 65.660122H97.869576C78.103273 162.971152 62.060606 179.975758 62.060606 201.448727c0 21.410909 16.042667 38.446545 35.80897 38.446546z" p-id="5478" fill="#ffffff"></path></svg>