<?xml version="1.0" standalone="no"?><!DOCTYPE svg PUBLIC "-//W3C//DTD SVG 1.1//EN" "http://www.w3.org/Graphics/SVG/1.1/DTD/svg11.dtd"><svg t="1602681266140" class="icon" viewBox="0 0 1024 1024" version="1.1" xmlns="http://www.w3.org/2000/svg" p-id="6018" width="200" height="200" xmlns:xlink="http://www.w3.org/1999/xlink"><defs><style type="text/css"></style></defs><path d="M343.347882 894.477065l-97.882308 0c-33.94102 0-75.265194-31.506575-75.265194-57.190537L170.20038 181.145663c0-29.218462 23.294542-52.132334 53.570079-52.132334l498.986615 0c11.462053 0 31.751145 0.027629 31.751145 52.132334L754.508219 675.825183c0 18.122753 15.291265 32.807197 33.257451 32.807197 17.966187 0 33.257451-14.684444 33.257451-32.807197L821.023122 181.145663c0-73.708745-36.9741-117.124558-98.266048-117.124558L223.77046 64.021106c-66.75845 0-118.03837 51.115168-118.03837 117.124558l0 656.141888c0 68.060095 75.982532 122.18276 139.733485 122.18276l97.882308 0c17.966187 0 32.54216-14.373359 32.54216-32.496112C375.890043 908.850423 361.314069 894.477065 343.347882 894.477065z" p-id="6019" fill="#e6e6e6"></path><path d="M610.413404 223.802182c-8.475022-8.475022-22.203698-8.475022-30.677697 0L463.378629 340.158237 347.021551 223.802182c-8.475022-8.475022-22.203698-8.475022-30.677697 0s-8.475022 22.203698 0 30.677697l98.168834 98.168834-81.304747 0c-11.992125 0-21.695115 9.508561-21.695115 21.48943s9.702989 21.48943 21.695115 21.48943l109.286032 0 0 64.46829L333.207941 460.095863c-11.992125 0-21.695115 9.508561-21.695115 21.48943s9.702989 21.48943 21.695115 21.48943l109.286032 0 0 65.538669c0 11.980869 9.497305 21.695115 21.48943 21.695115s21.48943-9.714246 21.48943-21.695115l0-65.538669 108.076484 0c11.991102 0 21.695115-9.508561 21.695115-21.48943s-9.702989-21.48943-21.695115-21.48943L485.472833 460.095863l0-64.46829 108.076484 0c11.991102 0 21.695115-9.508561 21.695115-21.48943s-9.702989-21.48943-21.695115-21.48943l-81.304747 0 98.168834-98.168834C618.887402 246.00588 618.887402 232.276181 610.413404 223.802182z" p-id="6020" fill="#e6e6e6"></path><path d="M885.724727 767.087723 466.603067 767.087723l55.487755-55.481615c12.71151-12.701277 12.71151-33.305547 0-46.017056s-33.305547-12.71151-46.017056 0L370.031615 771.620969c-9.484002 5.594415-15.835663 15.835663-15.835663 27.700899 0 11.208273 5.66707 20.968567 14.288424 26.730805l106.566084 106.555851c6.355755 6.355755 14.682397 9.534144 23.00904 9.534144s16.652262-3.178389 23.00904-9.534144c12.71151-12.71151 12.71151-33.31578 0-46.017056l-55.041594-55.036477 419.698804 0c17.966187 0 32.54216-14.257725 32.54216-32.234145S903.690914 767.087723 885.724727 767.087723z" p-id="6021" fill="#e6e6e6"></path></svg>