<svg t="1696492289159" class="icon" viewBox="0 0 1024 1024" version="1.1" xmlns="http://www.w3.org/2000/svg" p-id="5909" width="360" height="360"><path d="M777.92 925.696H614.976a49.408 49.408 0 0 1-49.28-49.344V632.96H458.24v242.432a49.472 49.472 0 0 1-49.152 49.28l-162.752 0.896h-0.256a49.28 49.28 0 0 1-49.344-49.344V542.912H115.712a41.6 41.6 0 0 1-29.056-71.488l395.776-394.88a41.664 41.664 0 0 1 59.136 0l395.84 394.88a41.6 41.6 0 0 1-29.12 71.488h-80.96v333.44c0 27.264-22.144 49.28-49.408 49.28zM633.6 857.6h125.696V524.288c0-27.264 22.08-49.28 49.28-49.344h36.032L512 143.168 179.392 474.944h35.968c27.264 0 49.28 22.08 49.344 49.344v333.248l125.568-0.64v-242.56c0-27.264 22.08-49.28 49.28-49.28H584.32c31.808 0 49.344 35.008 49.344 59.264v233.344z"  p-id="5910"></path></svg>
