<svg  class="icon" viewBox="0 0 1024 1024" version="1.1" xmlns="http://www.w3.org/2000/svg" p-id="70307" width="128" height="128"><path d="M954.56 673.13c-11.2-18.8-36-25.24-55.4-14.39L512 875.33 124.84 658.74c-19.4-10.85-44.2-4.41-55.4 14.39-11.2 18.79-4.55 42.83 14.85 53.68l407.42 227.93 0.39 0.2 0.89 0.47 1 0.49 0.68 0.31c0.41 0.19 0.82 0.38 1.23 0.55l0.37 0.15a41.43 41.43 0 0 0 14.8 3.09h1.86a41.43 41.43 0 0 0 14.83-3.09l0.37-0.15c0.41-0.17 0.82-0.36 1.23-0.55l0.68-0.31 1-0.49 0.89-0.47 0.39-0.2 407.39-227.93c19.4-10.81 26.05-34.89 14.85-53.68z" p-id="70308"></path><path d="M84.29 546l406 227.15a41.48 41.48 0 0 0 10.81 4.62l1.64 0.4 0.37 0.08c0.42 0.1 0.85 0.17 1.28 0.25l0.7 0.13c0.33 0.06 0.67 0.1 1 0.15l1 0.13 0.83 0.08 1.12 0.11h0.84l1.11 0.05h1.94l1.13-0.05h0.82l1.12-0.1 0.82-0.08 1-0.13 1-0.15 0.7-0.13c0.43-0.08 0.86-0.15 1.29-0.25l0.37-0.08 1.63-0.4a41.42 41.42 0 0 0 10.8-4.62L939.64 546c19.4-10.85 26.05-34.89 14.85-53.68-11.2-18.8-36-25.24-55.41-14.39L512 694.54 124.84 478c-19.4-10.85-44.2-4.41-55.4 14.39-11.2 18.76-4.55 42.8 14.85 53.61z"  p-id="70309"></path><path d="M69.44 350.9a39.81 39.81 0 0 0 16.37 15.19L490.1 592.27a41.65 41.65 0 0 0 16.8 5.88h0.15c0.51 0.06 1 0.11 1.54 0.15h0.44l1.25 0.06h3.46c0.42 0 0.83 0 1.24-0.06h0.46l1.53-0.15h0.15a41.65 41.65 0 0 0 16.8-5.88l405.76-227 0.52-0.31 0.81-0.48 0.88-0.55 0.79-0.52 0.89-0.62 0.68-0.5 0.95-0.73 0.53-0.44c0.35-0.29 0.7-0.58 1-0.88l0.38-0.33c0.38-0.35 0.76-0.71 1.12-1.07l0.22-0.21c0.42-0.42 0.82-0.83 1.21-1.26l0.09-0.09a38.92 38.92 0 0 0 5.69-8.09l0.09-0.16c0.25-0.49 0.49-1 0.72-1.46l0.21-0.44c0.17-0.38 0.34-0.76 0.49-1.14l0.33-0.78c0.1-0.25 0.19-0.51 0.28-0.77s0.28-0.76 0.41-1.14l0.12-0.38c0.16-0.51 0.32-1 0.46-1.51a38 38 0 0 0 1.29-7.41v-0.1q0.06-0.87 0.09-1.74v-1.83c0-0.57-0.05-1.15-0.09-1.73v-0.1a38 38 0 0 0-1.29-7.41c-0.14-0.51-0.3-1-0.46-1.5l-0.12-0.4c-0.13-0.38-0.27-0.76-0.41-1.13s-0.18-0.52-0.28-0.78l-0.33-0.77c-0.15-0.38-0.32-0.76-0.49-1.14l-0.21-0.44c-0.23-0.49-0.47-1-0.72-1.46l-0.09-0.16a38.92 38.92 0 0 0-5.69-8.09l-0.09-0.09c-0.39-0.43-0.8-0.85-1.21-1.26l-0.21-0.22c-0.37-0.36-0.75-0.71-1.13-1.06l-0.38-0.33c-0.33-0.3-0.68-0.6-1-0.89l-0.53-0.43c-0.31-0.25-0.63-0.49-0.95-0.73l-0.68-0.5-0.89-0.62-0.79-0.52-0.89-0.57-0.81-0.49-0.52-0.3L532.23 69.26c-0.13-0.08-0.27-0.14-0.41-0.22l-0.7-0.37-1.26-0.67-0.21-0.09A41.63 41.63 0 0 0 490 70.24l-405.74 227-0.35 0.21c-0.35 0.2-0.7 0.4-1 0.61l-0.76 0.48-0.81 0.54-1 0.66-0.5 0.38c-0.41 0.3-0.81 0.6-1.2 0.92l-0.18 0.14a38.48 38.48 0 0 0-9 49.74zM512 148.7l326.28 182.53L512 513.76 185.72 331.23z"  p-id="70310"></path></svg>
