<?xml version="1.0" standalone="no"?><!DOCTYPE svg PUBLIC "-//W3C//DTD SVG 1.1//EN" "http://www.w3.org/Graphics/SVG/1.1/DTD/svg11.dtd"><svg t="1696492713716" class="icon" viewBox="0 0 1024 1024" version="1.1" xmlns="http://www.w3.org/2000/svg" p-id="22492" id="mx_n_1696492713717" width="128" height="128" xmlns:xlink="http://www.w3.org/1999/xlink"><path d="M954.4 813.952l-137.664-180.288c48.832-46.656 79.456-112.224 79.456-184.928 0-141.152-114.848-256-256-256s-256 114.848-256 256 114.848 256 256 256c45.472 0 88.096-12.032 125.152-32.896l138.144 180.928c6.304 8.256 15.808 12.608 25.472 12.608 6.752 0 13.6-2.112 19.36-6.56C962.432 848.064 965.12 827.968 954.4 813.952zM448.224 448.704c0-105.888 86.112-192 192-192s192 86.112 192 192-86.112 192-192 192S448.224 554.592 448.224 448.704zM320 320 128 320c-17.664 0-32-14.336-32-32s14.336-32 32-32l192 0c17.664 0 32 14.336 32 32S337.664 320 320 320zM256 576 128 576c-17.664 0-32-14.304-32-32 0-17.664 14.336-32 32-32l128 0c17.664 0 32 14.336 32 32C288 561.696 273.664 576 256 576zM480 800 128 800c-17.664 0-32-14.304-32-32s14.336-32 32-32l352 0c17.664 0 32 14.304 32 32S497.664 800 480 800z"  p-id="22493"></path></svg>
