<?xml version="1.0" standalone="no"?><!DOCTYPE svg PUBLIC "-//W3C//DTD SVG 1.1//EN" "http://www.w3.org/Graphics/SVG/1.1/DTD/svg11.dtd"><svg t="1556889450508" class="icon" style="" viewBox="0 0 1024 1024" version="1.1" xmlns="http://www.w3.org/2000/svg" p-id="1860" xmlns:xlink="http://www.w3.org/1999/xlink" width="200" height="200"><defs><style type="text/css"></style></defs><path d="M112 16h736v992H112z" fill="#EDF2F9" p-id="1861"></path><path d="M320 640h320v256H320z" fill="#FFFFFF" p-id="1862"></path><path d="M320 544h320v96H320z" fill="#C2CDDC" p-id="1863"></path><path d="M560 720H400a16 16 0 1 0 0 32h160a16 16 0 1 0 0-32zM336 912h288a32 32 0 0 0 32-32V560a32 32 0 0 0-32-32h-32v-16a16 16 0 1 0-32 0v16h-32v-16a16 16 0 1 0-32 0v16h-32v-16a16 16 0 1 0-32 0v16h-32v-16a16 16 0 1 0-32 0v16h-32a32 32 0 0 0-32 32v320a32 32 0 0 0 32 32z m0-352h32v16a16 16 0 1 0 32 0v-16h32v16a16 16 0 1 0 32 0v-16h32v16a16 16 0 1 0 32 0v-16h32v16a16 16 0 1 0 32 0v-16h32v64H336v-64z m0 96h288v224H336V656zM896 128h-32V32a32 32 0 0 0-32-32H128a32 32 0 0 0-32 32v960a32 32 0 0 0 32 32h704a32 32 0 0 0 32-32V416h32a32 32 0 0 0 32-32V160a32 32 0 0 0-32-32z m-64 0H448a32 32 0 0 0-32 32v224a32 32 0 0 0 32 32h384v576H128V32h704v96zM560 784H400a16 16 0 1 0 0 32h160a16 16 0 1 0 0-32z" fill="#8592A5" p-id="1864"></path><path d="M544.032 306.4h43.2v21.6h-70.24v-116.56h27.04v94.96zM708.672 269.68c0 8.416-1.456 16.272-4.352 23.52s-7.008 13.568-12.288 18.928-11.648 9.568-19.072 12.592c-7.44 3.04-15.68 4.56-24.768 4.56a65.248 65.248 0 0 1-24.8-4.56c-7.472-3.024-13.84-7.232-19.152-12.592s-9.424-11.664-12.336-18.928-4.352-15.088-4.352-23.52 1.456-16.288 4.352-23.536a55.52 55.52 0 0 1 31.488-31.44 65.504 65.504 0 0 1 24.8-4.56 64.32 64.32 0 0 1 24.768 4.608c7.44 3.056 13.792 7.264 19.072 12.592s9.376 11.632 12.288 18.88c2.896 7.28 4.352 15.088 4.352 23.456z m-27.68 0c0-5.76-0.752-10.96-2.256-15.568a32.832 32.832 0 0 0-6.432-11.712 27.6 27.6 0 0 0-10.288-7.36 35.28 35.28 0 0 0-13.84-2.56c-5.216 0-9.872 0.848-13.952 2.56-4.08 1.696-7.52 4.16-10.336 7.36a32.592 32.592 0 0 0-6.432 11.712c-1.488 4.608-2.24 9.792-2.24 15.568 0 5.808 0.752 11.008 2.24 15.632 1.504 4.624 3.648 8.528 6.432 11.728 2.816 3.184 6.256 5.648 10.336 7.312 4.08 1.68 8.736 2.512 13.952 2.512 5.168 0 9.792-0.832 13.84-2.512 4.064-1.664 7.488-4.128 10.288-7.312 2.8-3.2 4.96-7.104 6.432-11.728a49.76 49.76 0 0 0 2.256-15.632zM776.512 308.48a46.08 46.08 0 0 0 18.08-3.536v-17.664h-11.52a5.568 5.568 0 0 1-4-1.36 4.48 4.48 0 0 1-1.456-3.44v-14.896h41.456V316.8a61.12 61.12 0 0 1-9.328 5.648c-3.216 1.584-6.672 2.88-10.32 3.872-3.664 1.008-7.552 1.76-11.68 2.256-4.128 0.48-8.576 0.72-13.312 0.72-8.544 0-16.432-1.504-23.68-4.512s-13.536-7.168-18.848-12.48a57.28 57.28 0 0 1-12.464-18.88 61.488 61.488 0 0 1-4.528-23.712c0-8.704 1.456-16.688 4.336-23.968s7.008-13.568 12.352-18.848 11.84-9.376 19.44-12.32 16.096-4.4 25.488-4.4c4.848 0 9.408 0.4 13.664 1.2s8.208 1.888 11.792 3.28a53.872 53.872 0 0 1 17.888 11.216l-7.84 11.92a9.12 9.12 0 0 1-2.672 2.64 6.416 6.416 0 0 1-3.408 0.96 9.44 9.44 0 0 1-4.976-1.6c-2.128-1.28-4.144-2.384-6.032-3.328s-3.824-1.68-5.792-2.288c-1.984-0.576-4.064-1.008-6.256-1.28s-4.64-0.384-7.36-0.384c-5.056 0-9.632 0.896-13.664 2.672-4.064 1.792-7.52 4.32-10.352 7.568-2.864 3.248-5.056 7.152-6.608 11.712s-2.32 9.648-2.32 15.248c0 6.192 0.848 11.664 2.56 16.464 1.696 4.8 4.064 8.864 7.072 12.16 3.008 3.312 6.576 5.824 10.72 7.568 4.128 1.712 8.672 2.576 13.568 2.576z" fill="#FFFFFF" p-id="1865"></path></svg>