<svg t="1696560645827" class="icon" viewBox="0 0 1042 1024" version="1.1" xmlns="http://www.w3.org/2000/svg" p-id="12983" width="128" height="128"><path d="M566.857143 689.371429c-34.742857 0-64 29.257143-64 64s29.257143 64 64 64 64-29.257143 64-64-29.257143-64-64-64z m0 73.142857c-5.485714 0-9.142857-3.657143-9.142857-9.142857s3.657143-9.142857 9.142857-9.142858 9.142857 3.657143 9.142857 9.142858-3.657143 9.142857-9.142857 9.142857z"  p-id="12984"></path><path d="M760.685714 683.885714c-1.828571-7.314286-7.314286-12.8-14.628571-16.457143-7.314286-3.657143-14.628571-3.657143-21.942857 0l-16.457143 7.314286 14.628571-10.971428c5.485714-3.657143 9.142857-10.971429 10.971429-18.285715 0-7.314286-1.828571-14.628571-5.485714-20.114285-31.085714-36.571429-73.142857-60.342857-120.685715-69.485715-7.314286-1.828571-14.628571 0-20.114285 5.485715-5.485714 3.657143-9.142857 10.971429-10.971429 18.285714l-1.828571 18.285714-1.828572-18.285714c-1.828571-7.314286-5.485714-14.628571-10.971428-18.285714-5.485714-3.657143-12.8-5.485714-20.114286-5.485715-47.542857 7.314286-89.6 32.914286-120.685714 69.485715-5.485714 5.485714-7.314286 12.8-5.485715 20.114285 0 7.314286 5.485714 14.628571 10.971429 18.285715l14.628571 10.971428-16.457143-7.314286c-7.314286-3.657143-14.628571-3.657143-21.942857 0-7.314286 3.657143-12.8 9.142857-14.628571 16.457143-7.314286 21.942857-12.8 45.714286-12.8 69.485715 0 23.771429 3.657143 47.542857 12.8 69.485714 1.828571 7.314286 7.314286 12.8 14.628571 16.457143 7.314286 3.657143 14.628571 3.657143 21.942857 0l16.457143-7.314286-14.628571 10.971429c-5.485714 3.657143-9.142857 10.971429-10.971429 18.285714 0 7.314286 1.828571 14.628571 5.485715 20.114286 31.085714 36.571429 73.142857 60.342857 120.685714 69.485714 7.314286 1.828571 14.628571 0 20.114286-5.485714 5.485714-3.657143 9.142857-10.971429 10.971428-18.285715l1.828572-18.285714 1.828571 18.285714c1.828571 7.314286 5.485714 14.628571 10.971429 18.285715 5.485714 3.657143 10.971429 5.485714 16.457142 5.485714h5.485715c47.542857-7.314286 89.6-32.914286 120.685714-69.485714 5.485714-5.485714 7.314286-12.8 5.485714-20.114286 0-7.314286-5.485714-14.628571-10.971428-18.285714l-14.628572-10.971429 16.457143 7.314286c7.314286 3.657143 14.628571 3.657143 21.942857 0 7.314286-3.657143 12.8-9.142857 14.628572-16.457143 7.314286-21.942857 12.8-45.714286 12.8-69.485714 0-23.771429-5.485714-47.542857-14.628572-69.485715z m-43.885714 91.428572l-10.971429-3.657143c-12.8-5.485714-27.428571 0-34.742857 10.971428l-23.771428 42.057143c-7.314286 12.8-3.657143 27.428571 7.314285 34.742857l9.142858 7.314286c-10.971429 9.142857-25.6 16.457143-38.4 21.942857l-1.828572-10.971428c-1.828571-12.8-12.8-23.771429-27.428571-23.771429H548.571429c-14.628571 0-25.6 10.971429-27.428572 23.771429l-1.828571 10.971428c-14.628571-5.485714-27.428571-12.8-38.4-21.942857l9.142857-7.314286c10.971429-9.142857 14.628571-23.771429 7.314286-34.742857l-23.771429-42.057143c-7.314286-12.8-21.942857-16.457143-34.742857-10.971428l-10.971429 3.657143c-1.828571-7.314286-1.828571-14.628571-1.828571-21.942857 0-7.314286 0-14.628571 1.828571-21.942858l10.971429 3.657143c12.8 5.485714 27.428571 0 34.742857-10.971428l23.771429-42.057143c7.314286-12.8 3.657143-27.428571-7.314286-34.742857l-9.142857-7.314286c10.971429-9.142857 25.6-16.457143 38.4-21.942857l1.828571 10.971428c1.828571 12.8 12.8 23.771429 27.428572 23.771429h47.542857c14.628571 0 25.6-10.971429 27.428571-23.771429l1.828572-10.971428c14.628571 5.485714 27.428571 12.8 38.4 21.942857l-9.142858 7.314286c-10.971429 9.142857-14.628571 23.771429-7.314285 34.742857l23.771428 42.057143c7.314286 12.8 21.942857 16.457143 34.742857 10.971428l10.971429-3.657143c1.828571 7.314286 1.828571 14.628571 1.828571 21.942858 0 7.314286 0 14.628571-1.828571 21.942857z" p-id="12985"></path><path d="M362.057143 928.914286c-10.971429-12.8-16.457143-27.428571-20.114286-42.057143-10.971429-10.971429-20.114286-23.771429-25.6-38.4-10.971429-31.085714-16.457143-62.171429-16.457143-95.085714 0-32.914286 5.485714-64 16.457143-95.085715 5.485714-14.628571 14.628571-27.428571 25.6-38.4 3.657143-14.628571 10.971429-29.257143 20.114286-42.057143 42.057143-49.371429 100.571429-84.114286 162.742857-95.085714 5.485714-1.828571 10.971429-1.828571 16.457143-1.828571 9.142857 0 20.114286 1.828571 29.257143 3.657143h3.657143c-10.971429-7.314286-23.771429-12.8-34.742858-18.285715 53.028571-40.228571 85.942857-102.4 85.942858-173.714285 0-120.685714-98.742857-219.428571-219.428572-219.428572s-219.428571 98.742857-219.428571 219.428572c0 71.314286 34.742857 133.485714 85.942857 173.714285C157.257143 517.485714 76.8 632.685714 76.8 768v146.285714c0 20.114286 16.457143 36.571429 36.571429 36.571429h268.8c-5.485714-7.314286-12.8-14.628571-20.114286-21.942857z"  p-id="12986"></path><path d="M760.685714 468.114286c53.028571-40.228571 87.771429-104.228571 87.771429-175.542857 0-120.685714-98.742857-219.428571-219.428572-219.428572H621.714286c-16.457143 0-29.257143 10.971429-34.742857 27.428572-5.485714 16.457143 1.828571 31.085714 14.628571 40.228571 51.2 34.742857 82.285714 91.428571 82.285714 151.771429 0 56.685714-25.6 109.714286-73.142857 144.457142-10.971429 7.314286-16.457143 20.114286-14.628571 32.914286 0 3.657143 1.828571 7.314286 3.657143 10.971429h3.657142c5.485714 0 10.971429 0 16.457143 1.828571 64 10.971429 122.514286 43.885714 164.571429 95.085714 10.971429 12.8 16.457143 27.428571 20.114286 42.057143 10.971429 10.971429 20.114286 23.771429 25.6 38.4 10.971429 31.085714 16.457143 62.171429 16.457142 95.085715 0 32.914286-5.485714 64-16.457142 95.085714-5.485714 14.628571-14.628571 27.428571-25.6 38.4-1.828571 10.971429-7.314286 20.114286-12.8 29.257143 0 7.314286 3.657143 14.628571 9.142857 21.942857 7.314286 9.142857 16.457143 12.8 27.428571 12.8h84.114286c25.6 0 45.714286-20.114286 45.714286-45.714286V768c-1.828571-131.657143-82.285714-248.685714-197.485715-299.885714z" p-id="12987"></path></svg>
