<?xml version="1.0" standalone="no"?><!DOCTYPE svg PUBLIC "-//W3C//DTD SVG 1.1//EN" "http://www.w3.org/Graphics/SVG/1.1/DTD/svg11.dtd"><svg t="1601774008006" class="icon" viewBox="0 0 1066 1024" version="1.1" xmlns="http://www.w3.org/2000/svg" p-id="2490" xmlns:xlink="http://www.w3.org/1999/xlink" width="208.203125" height="200"><defs><style type="text/css"></style></defs><path d="M846.771689 1005.273749c-36.685557 0-110.759705 0-162.464611-35.918612l0 3.962551L98.488578 973.317688c-52.855324 0-95.868181-43.012857-95.868181-95.868181L2.620397 182.405193c0-52.855324 43.012857-95.868181 95.868181-95.868181l543.189115 0c39.369866-86.537012 155.817751-86.537012 205.093996-86.537012 54.644863 0 192.311572 0 215.128199 118.493072l3.259518 0L1064.967669 860.257146C1058.512545 1005.273749 905.251279 1005.273749 846.771689 1005.273749zM846.771689 760.234677c-128.655099 0-154.475596 34.640369-154.475596 90.563475s25.820497 90.563475 154.475596 90.563475 154.475596-34.640369 154.475596-90.563475S975.426788 760.234677 846.771689 760.234677zM98.488578 150.449132c-17.639745 0-31.95606 14.316315-31.95606 31.95606l0 695.044314c0 17.575833 14.316315 31.95606 31.95606 31.95606l529.895394 0L628.383972 150.449132 98.488578 150.449132zM846.771689 696.322556c34.896018 0 103.409812 0 154.475596 30.677818L1001.247285 154.411684c0-55.923106-25.820497-90.563475-154.475596-90.563475s-154.475596 34.640369-154.475596 90.563475l0 572.588691C743.361877 696.322556 811.875671 696.322556 846.771689 696.322556z" p-id="2491"></path></svg>