<?xml version="1.0" standalone="no"?><!DOCTYPE svg PUBLIC "-//W3C//DTD SVG 1.1//EN" "http://www.w3.org/Graphics/SVG/1.1/DTD/svg11.dtd"><svg t="1587973025617" class="icon" viewBox="0 0 1024 1024" version="1.1" xmlns="http://www.w3.org/2000/svg" p-id="2302" xmlns:xlink="http://www.w3.org/1999/xlink" width="200" height="200"><defs><style type="text/css">html, * { user-select: text !important; }
@font-face { font-family: rbicon; src: url("chrome-extension://dipiagiiohfljcicegpgffpbnjmgjcnf/fonts/rbicon.woff2") format("woff2"); font-weight: normal; font-style: normal; }
</style></defs><path d="M928 745.6v25.9c0 28.6-23.2 51.9-51.9 51.9H149.9c-28.6 0-51.9-23.2-51.9-51.9V252.8c0-28.6 23.2-51.9 51.9-51.9H430l83 77.8h332c45.6 0 83 35 83 77.8v389.1zM513 408.4c-21.5 0-38.9 17.4-38.9 38.9v77.8h-77.8c-21.5 0-38.9 17.4-38.9 38.9s17.4 38.9 38.9 38.9h77.8v77.8c0 21.5 17.4 38.9 38.9 38.9s38.9-17.4 38.9-38.9v-77.8h77.8c21.5 0 38.9-17.4 38.9-38.9s-17.4-38.9-38.9-38.9h-77.8v-77.8c0-21.5-17.4-38.9-38.9-38.9z" p-id="2303"></path></svg>