<?xml version="1.0" standalone="no"?><!DOCTYPE svg PUBLIC "-//W3C//DTD SVG 1.1//EN" "http://www.w3.org/Graphics/SVG/1.1/DTD/svg11.dtd"><svg t="1601775500467" class="icon" viewBox="0 0 1024 1024" version="1.1" xmlns="http://www.w3.org/2000/svg" p-id="3528" xmlns:xlink="http://www.w3.org/1999/xlink" width="200" height="200"><defs><style type="text/css"></style></defs><path d="M447.18 463.15c109.91 0 199-89.1 199-199s-89.1-199-199-199-199 89.1-199 199 89.09 199 199 199z m-95.46-294.47a135 135 0 1 1-39.54 95.46 134.12 134.12 0 0 1 39.54-95.46zM735.81 510.7a225.54 225.54 0 0 0-37 3.06 32 32 0 0 0-7-4.7c-1.16-0.57-2.33-1.14-3.51-1.7a221.68 221.68 0 0 0-30.93-11.9 218.17 218.17 0 0 0-26.64-6.21 217.308 217.308 0 0 0-35.86-2.98H550a42.23 42.23 0 0 0-30.84 13.44L445.43 579l-73.24-79.2a42.22 42.22 0 0 0-30.92-13.53h-45.13c-62.22 0-120.73 26.17-164.75 73.7C88 606.82 64.11 668.71 64.11 734.25V787c0 77.16 59.2 139.93 132 139.93l410.29 0.07a31.93 31.93 0 0 0 11-2 223 223 0 0 0 118.36 33.79c123.76 0 224.08-100.32 224.08-224.08S859.57 510.7 735.81 510.7zM128.11 787v-52.75c0-101.44 75.38-184 168-184h35.55l82.78 89.55a42.23 42.23 0 0 0 30.86 13.52h0.05a42.23 42.23 0 0 0 30.84-13.44l83.3-89.63h35.32c4.33 0 8.7 0.19 13 0.56A224.1 224.1 0 0 0 552 863l-356-0.06c-37.41 0.06-67.89-34.04-67.89-75.94z m730.8 70.84a174.12 174.12 0 0 1-230.52 13.91 32.1 32.1 0 0 0-3.82-3.1q-6.13-5.11-11.85-10.82A174.23 174.23 0 0 1 680.6 569.6a32.15 32.15 0 0 0 11.69-3.44 175.16 175.16 0 0 1 43.52-5.46 174.08 174.08 0 0 1 123.1 297.18z" p-id="3529"></path><path d="M827.37 744v-45h31.72v-36.12h-31.72v-47.05h-36.92v47.06h-30.16v-46.54h-36.92v46.54h-26V699h26v45h-32.23v36.92h169.77V744z m-36.92 0h-30.16v-45h30.16z" p-id="3530"></path><path d="M667.22 615c-12.48 35.88-34.06 71.76-56.42 94.38 6.24 9.36 16.38 30.42 19.76 39.78 3.64-3.9 7.54-8.32 11.18-13v125.36h37.18V679a473.06 473.06 0 0 0 23.92-52.78zM787.07 805.1c15.6 16.9 33.54 40.56 41.34 55.9l31.72-20c-9.1-14.82-26.52-36.4-42.9-52.52zM683.59 836.82c8.32 5.2 22.62 16.9 29.38 23.66 18.72-14.3 40.3-37.44 53.56-60.32L731.17 789c-10.4 17.92-28.86 36.38-47.58 47.82z" p-id="3531"></path></svg>