<svg t="1696559799646" class="icon" viewBox="0 0 1024 1024" version="1.1" xmlns="http://www.w3.org/2000/svg" p-id="3172" width="128" height="128"><path d="M512 128 128 326.4 896 326.4Z" p-id="3173"></path><path d="M128 832l768 0 0 64-768 0 0-64Z" p-id="3174"></path><path d="M230.4 384l0 384c0 19.2 12.8 32 32 32s32-12.8 32-32L294.4 384c0-19.2-12.8-32-32-32S230.4 364.8 230.4 384z" p-id="3175"></path><path d="M390.4 384l0 384c0 19.2 12.8 32 32 32s32-12.8 32-32L454.4 384c0-19.2-12.8-32-32-32S390.4 364.8 390.4 384z" p-id="3176"></path><path d="M569.6 384l0 384c0 19.2 12.8 32 32 32s32-12.8 32-32L633.6 384c0-19.2-12.8-32-32-32S569.6 364.8 569.6 384z" p-id="3177"></path><path d="M736 384l0 384c0 19.2 12.8 32 32 32s32-12.8 32-32L800 384c0-19.2-12.8-32-32-32S736 364.8 736 384z" p-id="3178"></path></svg>
