<?xml version="1.0" standalone="no"?><!DOCTYPE svg PUBLIC "-//W3C//DTD SVG 1.1//EN" "http://www.w3.org/Graphics/SVG/1.1/DTD/svg11.dtd"><svg t="1556889443803" class="icon" style="" viewBox="0 0 1024 1024" version="1.1" xmlns="http://www.w3.org/2000/svg" p-id="1607" xmlns:xlink="http://www.w3.org/1999/xlink" width="200" height="200"><defs><style type="text/css"></style></defs><path d="M512 321.024c-104.96 0-190.464 85.504-190.464 190.976s85.504 190.976 190.464 190.976 190.464-85.504 190.464-190.976S616.96 321.024 512 321.024z m0 279.552c-48.64 0-88.064-39.424-88.064-88.576S463.36 423.424 512 423.424s88.064 39.424 88.064 88.576-39.424 88.576-88.064 88.576z" fill="" p-id="1608"></path><path d="M945.664 382.976h-44.544c-12.8 0-24.064-7.68-29.184-19.456-5.12-11.776-2.048-25.6 6.656-34.304l29.184-29.184a50.9952 50.9952 0 0 0 0-72.192l-111.104-111.104c-19.456-19.456-53.248-19.456-72.704 0l-29.184 29.696a31.232 31.232 0 0 1-34.304 6.656 31.7952 31.7952 0 0 1-19.456-29.184V76.8c0-28.16-23.04-51.2-51.2-51.2H433.664c-28.16 0-51.2 23.04-51.2 51.2v46.08c0 12.8-7.68 24.576-19.968 29.184-11.264 4.608-25.088 2.048-34.304-7.168l-29.184-29.184c-18.944-19.456-53.248-18.944-72.704 0L115.712 226.816a50.9952 50.9952 0 0 0 0 72.192l29.184 29.184c9.216 9.728 11.776 23.04 6.656 35.328-5.12 11.776-16.384 19.456-29.184 19.456h-44.032c-28.16 0-51.2 23.04-51.2 51.2v157.184c0 28.16 23.04 51.2 51.2 51.2h44.544a31.7952 31.7952 0 0 1 22.528 54.272l-29.184 29.184a50.9952 50.9952 0 0 0 0 72.192l111.104 111.104c9.728 9.728 22.528 14.848 36.352 14.848 13.824 0 26.624-5.632 36.352-14.848l29.184-29.184a30.72 30.72 0 0 1 34.304-6.656c11.776 5.12 19.456 16.384 19.456 29.184v44.544c0 28.16 23.04 51.2 51.2 51.2h157.184c28.16 0 51.2-23.04 51.2-51.2v-44.544a31.5904 31.5904 0 1 1 53.76-22.528l29.184 29.696c9.728 9.728 22.528 14.848 36.352 14.848 13.824 0 26.624-5.632 36.352-14.848l111.104-111.104a50.9952 50.9952 0 0 0 0-72.192l-29.184-29.184a31.3344 31.3344 0 0 1-6.656-34.816c5.12-11.776 16.384-19.456 29.184-19.456h44.544c28.16 0 51.2-23.04 51.2-51.2V434.176c-1.536-28.672-24.576-51.2-52.736-51.2z m-51.2 157.184c-51.712 2.56-97.28 34.304-116.736 82.944-19.456 47.104-10.752 100.864 22.528 139.264l-38.912 39.424c-37.376-32.768-92.672-41.472-138.752-22.528-48.128 19.968-79.872 65.536-82.432 117.248H484.352c-2.56-51.712-34.304-97.28-82.432-117.248-46.592-19.456-101.376-10.24-139.264 22.528l-39.424-39.424c33.28-38.4 41.984-91.648 22.528-138.752a134.9632 134.9632 0 0 0-116.736-82.944V484.864a133.12 133.12 0 0 0 117.248-82.432c19.456-47.104 10.752-100.864-22.528-139.264l39.424-39.424c37.888 32.768 93.696 41.472 138.752 22.528 48.64-19.968 80.896-66.048 82.944-118.272h54.784c2.048 52.224 33.792 98.304 82.432 118.272 46.08 19.456 101.376 10.24 139.264-22.528l38.912 39.424c-33.28 38.4-41.984 91.648-22.528 139.264 19.968 48.128 65.536 79.872 116.736 82.944v54.784z" fill="" p-id="1609"></path></svg>