<?xml version="1.0" standalone="no"?><!DOCTYPE svg PUBLIC "-//W3C//DTD SVG 1.1//EN" "http://www.w3.org/Graphics/SVG/1.1/DTD/svg11.dtd"><svg t="1602681344429" class="icon" viewBox="0 0 1024 1024" version="1.1" xmlns="http://www.w3.org/2000/svg" p-id="6919" xmlns:xlink="http://www.w3.org/1999/xlink" width="200" height="200"><defs><style type="text/css"></style></defs><path d="M938.688 322.176c10.816 18.368 16.448 38.912 17.088 61.696v441.856c-1.152 36.16-13.696 66.176-37.632 90.112-23.936 23.936-53.952 36.48-90.112 37.632H187.52c-36.16-1.152-66.24-13.696-90.112-37.632-23.936-23.936-36.48-53.952-37.632-90.112V383.872c0-22.72 5.824-43.328 17.472-61.696 11.648-18.368 27.136-33.984 46.4-46.784l320.256-198.656c19.84-12.8 42.112-19.264 66.944-19.264 24.768 0 47.104 6.4 66.944 19.264l320.256 198.656c16.256 12.8 29.824 28.416 40.64 46.784z m-256.384 229.696c11.392-11.648 17.088-27.136 17.088-46.4s-5.696-34.688-17.088-46.4c-11.392-11.648-27.008-17.472-46.784-17.472H380.032c-19.84 0-35.456 5.824-46.784 17.472-11.392 11.648-17.088 27.136-17.088 46.4s5.696 34.688 17.088 46.4c11.392 11.648 26.944 17.472 46.784 17.472H635.52c19.776 0 35.392-5.824 46.784-17.472z m0 255.936c11.392-11.392 17.088-26.816 17.088-46.4 0-19.52-5.696-35.008-17.088-46.4s-27.008-17.344-46.784-17.92H380.032c-19.84 0.576-35.456 6.592-46.784 17.92s-17.088 26.816-17.088 46.4c0 19.52 5.696 35.008 17.088 46.4s26.944 17.344 46.784 17.92H635.52c19.776-0.576 35.392-6.528 46.784-17.92z" p-id="6920" fill="#e6e6e6"></path></svg>