<?xml version="1.0" standalone="no"?><!DOCTYPE svg PUBLIC "-//W3C//DTD SVG 1.1//EN" "http://www.w3.org/Graphics/SVG/1.1/DTD/svg11.dtd"><svg t="1556889439153" class="icon" style="" viewBox="0 0 1024 1024" version="1.1" xmlns="http://www.w3.org/2000/svg" p-id="1480" xmlns:xlink="http://www.w3.org/1999/xlink" width="200" height="200"><defs><style type="text/css"></style></defs><path d="M758.6 469.1c35.6 0 69.9 6 101.8 17V72.5c0-39.1-31.7-70.7-70.7-70.7H95c-39.1 0-70.7 31.7-70.7 70.7v833.2c0 39.1 31.7 70.7 70.7 70.7h420.4c-43-53.5-68.8-121.4-68.8-195.4 0-172.2 139.7-311.9 312-311.9zM140.3 232.7c0-24.9 20.2-45 45-45h504.9c24.9 0 45 20.2 45 45 0 24.9-20.2 45-45 45H185.3c-24.8 0-45-20.1-45-45z m0 221.2c0-24.9 20.2-45 45-45h295.3c24.9 0 45 20.2 45 45 0 24.9-20.2 45-45 45H185.3c-24.8 0-45-20.1-45-45z m270.9 221.2c0 24.9-20.2 45-45 45H185.3c-24.9 0-45-20.2-45-45 0-24.9 20.2-45 45-45h180.9c24.8 0 45 20.2 45 45z" fill="#666666" p-id="1481"></path><path d="M758.6 539.9c-133.2 0-241.2 108-241.2 241.2s108 241.2 241.2 241.2 241.2-108 241.2-241.2-108-241.2-241.2-241.2z m148.2 262.2c0 15.1-12.2 27.3-27.3 27.3H750.6c-15.1 0-27.3-12.2-27.3-27.3V625.3c0-15.1 12.2-27.3 27.3-27.3 15.1 0 27.3 12.2 27.3 27.3v149.5h101.5c15.1 0 27.4 12.3 27.4 27.3z" fill="#666666" p-id="1482"></path></svg>