<?xml version="1.0" standalone="no"?><!DOCTYPE svg PUBLIC "-//W3C//DTD SVG 1.1//EN" "http://www.w3.org/Graphics/SVG/1.1/DTD/svg11.dtd"><svg t="1556889483675" class="icon" style="" viewBox="0 0 1076 1024" version="1.1" xmlns="http://www.w3.org/2000/svg" p-id="3455" xmlns:xlink="http://www.w3.org/1999/xlink" width="210.15625" height="200"><defs><style type="text/css"></style></defs><path d="M1052.586667 316.373333 992.426667 256.32C975.786667 239.68 946.133333 242.346667 926.186667 262.4L473.6 714.986667C453.546667 734.933333 450.88 764.586667 467.52 781.226667l60.053333 60.16c16.64 16.533333 46.293333 13.866667 66.346667-6.186667L1046.4 382.72C1066.453333 362.666667 1069.226667 333.013333 1052.586667 316.373333zM573.226667 897.173333l2.133333 1.813333L387.093333 998.4 768 998.4c28.373333 0 51.2-22.933333 51.2-51.2L819.2 656 586.453333 887.68C582.293333 891.733333 577.706667 894.08 573.226667 897.173333zM408.106667 755.52C411.84 745.6 417.066667 735.893333 425.493333 727.573333L819.2 335.68 819.2 51.2C819.2 22.933333 796.266667 0 768 0L51.2 0C22.933333 0 0 22.933333 0 51.2l0 895.893333c0 28.373333 22.933333 51.2 51.2 51.2l253.226667 0 101.333333-244.906667L408.106667 755.52zM128 76.8l537.6 0c28.373333 0 51.2 14.08 51.2 31.573333 0 17.493333-22.933333 31.466667-51.2 31.466667L128 139.84c-28.266667 0-51.2-14.08-51.2-31.466667C76.8 90.88 99.733333 76.8 128 76.8zM128 245.44l537.6 0c28.373333 0 51.2 14.826667 51.2 33.066667 0 18.24-22.933333 33.066667-51.2 33.066667L128 311.573333c-28.266667 0-51.2-14.826667-51.2-33.066667C76.8 260.266667 99.733333 245.44 128 245.44zM128 486.186667c-28.266667 0-51.2-15.36-51.2-34.133333s22.933333-34.133333 51.2-34.133333l332.8 0c28.266667 0 51.2 15.253333 51.2 34.133333s-22.933333 34.133333-51.2 34.133333L128 486.186667zM417.28 784.853333 320.64 1007.68l215.146667-109.653333L417.28 784.853333z" p-id="3456"></path></svg>